<svg width="1em" height="1em" viewBox="0 0 16 17" fill="none" xmlns="http://www.w3.org/2000/svg">
<path d="M13.3334 14.7534C13.3334 13.823 13.3334 13.3579 13.2186 12.9793C12.9601 12.1271 12.2931 11.4601 11.4408 11.2016C11.0623 11.0867 10.5971 11.0867 9.66675 11.0867H6.33342C5.40304 11.0867 4.93785 11.0867 4.55932 11.2016C3.70705 11.4601 3.04011 12.1271 2.78157 12.9793C2.66675 13.3579 2.66675 13.823 2.66675 14.7534M11.0001 5.75342C11.0001 7.41027 9.65694 8.75342 8.00008 8.75342C6.34323 8.75342 5.00008 7.41027 5.00008 5.75342C5.00008 4.09656 6.34323 2.75342 8.00008 2.75342C9.65694 2.75342 11.0001 4.09656 11.0001 5.75342Z" stroke="currentColor" stroke-width="1.5" stroke-linecap="round" stroke-linejoin="round"/>
</svg>
