<svg width="20" height="20" viewBox="0 0 20 20" fill="none" xmlns="http://www.w3.org/2000/svg">
<g opacity="0.7">
<path d="M11.6667 17.5H8.33333M15 6.66667C15 5.34058 14.4732 4.06881 13.5355 3.13113C12.5978 2.19345 11.3261 1.66667 10 1.66667C8.67391 1.66667 7.40214 2.19345 6.46446 3.13113C5.52678 4.06881 5 5.34058 5 6.66667C5 9.24182 4.35039 11.005 3.62472 12.1712C3.0126 13.1549 2.70654 13.6468 2.71777 13.784C2.73019 13.9359 2.76238 13.9938 2.88481 14.0846C2.99538 14.1667 3.49382 14.1667 4.49071 14.1667H15.5093C16.5062 14.1667 17.0046 14.1667 17.1152 14.0846C17.2376 13.9938 17.2698 13.9359 17.2822 13.784C17.2934 13.6468 16.9874 13.1549 16.3753 12.1712C15.6496 11.005 15 9.24182 15 6.66667Z" stroke="white" stroke-width="1.66667" stroke-linecap="round" stroke-linejoin="round"/>
</g>
</svg>
